<svg width="900" height="520" viewBox="0 0 900 520" fill="none" xmlns="http://www.w3.org/2000/svg">
  <rect width="900" height="520" rx="28" fill="#F4F7FA"/>
  <rect x="36" y="36" width="828" height="448" rx="24" fill="white" stroke="#D7E1EA"/>
  <circle cx="205" cy="210" r="88" fill="#D7E9F4"/>
  <circle cx="205" cy="182" r="34" fill="#8FB5CC"/>
  <path d="M126 279c14-37 46-55 79-55s64 18 79 55" fill="#8FB5CC"/>
  <rect x="350" y="120" width="370" height="20" rx="10" fill="#144C73" opacity="0.95"/>
  <rect x="350" y="158" width="295" height="14" rx="7" fill="#91A7B8"/>
  <rect x="350" y="194" width="420" height="12" rx="6" fill="#D6DEE6"/>
  <rect x="350" y="220" width="390" height="12" rx="6" fill="#D6DEE6"/>
  <rect x="350" y="246" width="350" height="12" rx="6" fill="#D6DEE6"/>
  <rect x="350" y="302" width="122" height="34" rx="17" fill="#E7F0F7"/>
  <rect x="484" y="302" width="122" height="34" rx="17" fill="#E7F0F7"/>
  <rect x="618" y="302" width="122" height="34" rx="17" fill="#E7F0F7"/>
  <rect x="350" y="364" width="430" height="12" rx="6" fill="#D6DEE6"/>
  <rect x="350" y="390" width="300" height="12" rx="6" fill="#D6DEE6"/>
  <text x="350" y="92" fill="#10263A" font-size="30" font-family="Arial, sans-serif" font-weight="700">Professional profile placeholder</text>
  <text x="350" y="456" fill="#607284" font-size="18" font-family="Arial, sans-serif">Replace with a headshot or branded portfolio image if desired.</text>
</svg>
